<svg xmlns="http://www.w3.org/2000/svg" viewBox="0 0 184.87 199.77"><defs><style>.cls-1{fill:#cd9648;}</style></defs><g id="Layer_2" data-name="Layer 2"><g id="Layer_1-2" data-name="Layer 1"><path class="cls-1" d="M87.34,0c-.57.64-1.34.38-2,.38q-31,0-62,0c-.68,0-1.44.28-2-.38Z"/><path class="cls-1" d="M165.09,0a.59.59,0,0,1,.09.32,2.25,2.25,0,0,1-2-.32Z"/><path class="cls-1" d="M87.34,0h75.8c.72.41,1.52.11,2.28.2,6.16.15,10.71,3.36,14.4,7.88a22.32,22.32,0,0,1,5,14.49q0,87,0,174c0,1.07.38,2.49-.75,3s-2.13-.63-3-1.37c-6.5-5.52-13.17-10.83-19.61-16.43-7.42-6.44-14.63-13.12-22.17-19.43a18.16,18.16,0,0,0-2.18-1.72c-.37.52,0,1,.12,1.41,1.1,3.75,2.28,7.47,3.46,11.19,1.07,3.38.67,3.9-2.85,3.9H22.61c-13.2,0-22.55-9.1-22.57-22.27Q0,88.49,0,22.09C0,12.29,5.43,4.37,14,1c1.73-.67,3.57-.54,5.32-1h2A2.87,2.87,0,0,0,23,.19q31.29,0,62.6,0A2.88,2.88,0,0,0,87.34,0ZM73.87,47.41a54.21,54.21,0,0,0-26.33,9.84A4.68,4.68,0,0,0,46,58.94a133.46,133.46,0,0,0-14.66,52.52c-.29,4.46,1.29,7.39,4.38,10.09,7.59,6.64,16.57,9.48,26.46,9.92a1.42,1.42,0,0,0,1.32-.63c2-2.54,4.08-5.06,6.2-7.68A46.61,46.61,0,0,1,60.26,119a24.09,24.09,0,0,1-7.63-6.79c26.81,13.53,53.44,14.77,80-.83-.08.39-.07.54-.14.62-.25.31-.51.59-.78.87a36.35,36.35,0,0,1-15.59,9.25c-1.15.37-1.36.68-.56,1.63,1.64,1.94,3.25,3.9,4.78,5.93a2.87,2.87,0,0,0,2.81,1.21c11.63-.72,21.72-4.8,29.88-13.31a3.64,3.64,0,0,0,1.16-2.88c-.53-19.72-5.79-38.16-14.78-55.62a4,4,0,0,0-1.2-1.5c-8-5.6-16.8-9.22-26.66-10-1.37-.1-2.41.13-3,1.47,12.42,4.32,20.93,8.43,24,11.86-27.4-12.22-54.4-12.29-81.42-.46a32.34,32.34,0,0,1,5.76-4.12,76.62,76.62,0,0,1,20-7.81C76.13,47,74.94,47.32,73.87,47.41Z"/><path class="cls-1" d="M83.88,95.18A10.87,10.87,0,0,1,73.12,106.4a11.13,11.13,0,0,1,.21-22.26C79.07,84.12,83.85,89.12,83.88,95.18Z"/><path class="cls-1" d="M101,95.26a11,11,0,0,1,10.9-11.12c5.72,0,10.55,5.09,10.58,11.08a11,11,0,0,1-10.85,11.18A10.85,10.85,0,0,1,101,95.26Z"/></g></g></svg>