<svg xmlns="http://www.w3.org/2000/svg" viewBox="0 0 213.21 213.37"><defs><style>.cls-1{fill:#cd9648;}</style></defs><g id="Layer_2" data-name="Layer 2"><g id="Layer_1-2" data-name="Layer 1"><path class="cls-1" d="M213.21,115.85c-1.07,1.85-.88,4-1.15,6A107.77,107.77,0,0,1,203.27,152a111.94,111.94,0,0,1-30.52,40.27,103.07,103.07,0,0,1-41.22,21.09V211c0-13.06-.17-26.12.07-39.17.14-7.61-1.52-14.41-6.59-20.23-.39-.46-.69-1-1.19-1.75a95.24,95.24,0,0,0,13-3.12c13.43-4.54,23.85-12.54,29.49-25.91,6.07-14.38,5.41-28.53-2.79-41.8-3.13-5.06-4.57-9.54-3.14-15.5,1.5-6.3-.17-12.66-2.23-18.78-.27-.83-.67-.83-1.51-.79-8.84.42-16.06,4.91-23.3,9.25a7.92,7.92,0,0,1-6.63,1,80.4,80.4,0,0,0-41.35.21,5.41,5.41,0,0,1-4.52-.65c-5.32-3.23-10.62-6.52-16.6-8.49-2.67-.89-5.48-.75-8.18-1.41-1-.24-.92.67-1.09,1.17-2.79,7.9-3.61,15.94-1.26,24.09a4.69,4.69,0,0,1-.95,4.55,46.93,46.93,0,0,0-8.89,36.16c2.89,19.13,14.66,30.73,32.45,36.88a77.18,77.18,0,0,0,12.83,3.07,24.06,24.06,0,0,1-3,4.52,20.63,20.63,0,0,0-3.82,9.1,2.11,2.11,0,0,1-1.76,1.93c-7.17,2.23-12.37.53-16.56-5.75-3.34-5-7-9.66-12.48-12.52a20.19,20.19,0,0,0-9.77-2.43c-.89,0-1.35,0-1.21,1.21.41,3.3.62,6.63.94,9.95,0,.53-.26,1.29.79,1.36,4.24.3,6.8,3.15,9.11,6.23s4,6.18,6.76,8.69c6.35,5.77,13.79,7.66,22.16,6.27l1.14-.18v35.11a52.8,52.8,0,0,1-8.66-2.45C48.22,201.87,29.45,186,16,163.72A105.79,105.79,0,0,1,.39,116.59c-2.91-37.87,10.6-69,39.84-93.16C56.58,9.94,75.65,2.53,96.77.45c.37,0,.86.13,1-.45h2.08c.25.27.58.2.89.21h.72c.31,0,.64.06.89-.21h8.34c.25.27.58.2.89.21h.72c.31,0,.64.06.89-.21h1.25c4.1.52,8.24.59,12.32,1.4a107.2,107.2,0,0,1,36,14.19,105.57,105.57,0,0,1,20.41,16.35,108.41,108.41,0,0,1,24,38.08,104,104,0,0,1,5.46,22c.28,2.11.11,4.26.54,6.36V99.6c-.37.39-.15.87-.21,1.32V102c.06.44-.16.93.21,1.32v6.25c-.28.27-.19.62-.21.94v2.29c0,.32-.07.67.21.94Z"/><path class="cls-1" d="M212.87,100.81c0-.43-.38-1,.34-1.21v1.25C213.07,101.05,213,101,212.87,100.81Z"/><path class="cls-1" d="M212.87,100.81a1,1,0,0,1,.34,0v1.25c-.13.19-.25.19-.35,0C212.86,101.65,212.87,101.23,212.87,100.81Z"/><path class="cls-1" d="M212.86,102.08l.35,0v1.25C212.69,103,212.8,102.55,212.86,102.08Z"/><path class="cls-1" d="M212.86,110.45c-.06-.36-.05-.69.35-.85v.83C213.1,110.62,213,110.62,212.86,110.45Z"/><path class="cls-1" d="M212.86,110.45l.35,0v.84c-.11.17-.22.19-.35,0Z"/><path class="cls-1" d="M212.86,111.28h.35v.83c-.11.18-.22.19-.35,0Z"/><path class="cls-1" d="M212.86,112.11a2,2,0,0,0,.35,0v.83c-.11.19-.22.19-.35,0Z"/><path class="cls-1" d="M212.86,112.94h.35v.84C212.67,113.67,212.81,113.29,212.86,112.94Z"/></g></g></svg>