<svg xmlns="http://www.w3.org/2000/svg" viewBox="0 0 179.42 146.1"><defs><style>.cls-1{fill:#cd9648;}</style></defs><g id="Layer_2" data-name="Layer 2"><g id="Layer_1-2" data-name="Layer 1"><path class="cls-1" d="M0,129.64c20.11,1.8,37.88-3,54-15.15-16.82-1.52-28-10-34.33-25.71,5.59.62,10.79.79,16.38-.75A37.31,37.31,0,0,1,14.93,74.79a36.22,36.22,0,0,1-8-23.32,36.91,36.91,0,0,0,16,4.4C6.8,42.25,3.06,26.05,12,6.59,32.14,30.27,57.3,43.22,87.87,45.28c-.13-3.66-.45-7.15-.35-10.62C88,19.5,99.56,5.1,114.26,1.37q20.43-5.19,35.8,9.27a2.38,2.38,0,0,0,2.47.68A76.47,76.47,0,0,0,174.47,2.7a38.21,38.21,0,0,1-15.17,20c6.9-.61,13.39-2.64,20.12-5.35a70.19,70.19,0,0,1-16.31,17.41,4.6,4.6,0,0,0-2,4.38,104.54,104.54,0,0,1-10.73,48.18c-8.8,18.25-21.59,33-38.88,43.73A100.13,100.13,0,0,1,71.45,145.1a109.3,109.3,0,0,1-37.53-1.39A102.68,102.68,0,0,1,.8,130.24C.66,130.15.53,130,0,129.64Z"/></g></g></svg>